<?xml version="1.0" encoding="utf-8"?>
<!-- Generator: Adobe Illustrator 26.0.3, SVG Export Plug-In . SVG Version: 6.00 Build 0)  -->
<svg version="1.1" id="Layer_1" xmlns="http://www.w3.org/2000/svg" xmlns:xlink="http://www.w3.org/1999/xlink" x="0px" y="0px"
	 viewBox="0 0 16 16" style="enable-background:new 0 0 16 16;" xml:space="preserve">
<desc>Created with Fabric.js 1.7.22</desc>
<g transform="translate(128 128) scale(0.72 0.72)">
	<g transform="translate(-175.05 -175.05000000000004) scale(3.89 3.89)">
		<path d="M4.9-0.7H3.7c-0.1,0-0.2,0.1-0.1,0.2L4-0.1L1.8,2L1.1,1.3L0.9,1.1C0.8,1,0.7,1,0.6,1.1l-1.3,1.3c-0.1,0.1-0.1,0.2,0,0.2
			l0.2,0.2c0.1,0.1,0.2,0.1,0.2,0l1-1l1,1c0.1,0.1,0.2,0.1,0.2,0l0.1-0.1c0,0,0,0,0,0l2.4-2.4l0.4,0.4C4.9,0.8,5,0.7,5,0.6v-1.2
			C5-0.6,5-0.7,4.9-0.7z"/>
		<path d="M3.5,1.7v3.1C3.5,4.9,3.5,5,3.6,5h0.6c0.1,0,0.2-0.1,0.2-0.2v-4L3.5,1.7z"/>
		<path d="M2.3,2.9v2C2.3,4.9,2.4,5,2.5,5H3c0.1,0,0.2-0.1,0.2-0.2V2L2.3,2.9z"/>
		<path d="M1.8,3.1c-0.1,0-0.2,0-0.3-0.1L1.1,2.6v2.2C1.1,4.9,1.2,5,1.3,5h0.6C1.9,5,2,4.9,2,4.8V3.1C2,3.1,1.9,3.1,1.8,3.1z"/>
		<path d="M0.8,2.3L0,3c0,0,0,0-0.1,0.1v1.8C-0.1,4.9,0,5,0.1,5h0.6c0.1,0,0.2-0.1,0.2-0.2L0.8,2.3L0.8,2.3z"/>
	</g>
</g>
</svg>
